<svg width="32" height="34" viewBox="0 0 32 34" fill="none" xmlns="http://www.w3.org/2000/svg">
<path fill-rule="evenodd" clip-rule="evenodd" d="M0 16.8393C0 7.60824 7.16344 0.125 16 0.125C24.8366 0.125 32 7.60824 32 16.8393C32 26.0703 24.8366 33.5536 16 33.5536C7.16344 33.5536 0 26.0703 0 16.8393Z" fill="#C4C4C4"/>
<path fill-rule="evenodd" clip-rule="evenodd" d="M16 0.125C7.16344 0.125 0 7.60824 0 16.8393C0 26.0703 7.16344 33.5536 16 33.5536C24.8366 33.5536 32 26.0703 32 16.8393C32 7.60824 24.8366 0.125 16 0.125ZM12.8156 7.97899C13.7258 7.93572 14.0166 7.92514 16.3342 7.92514H16.3315C18.6498 7.92514 18.9395 7.93572 19.8498 7.97899C20.7582 8.02245 21.3787 8.1727 21.9227 8.39314C22.4845 8.62064 22.9591 8.92522 23.4338 9.42108C23.9085 9.91657 24.2 10.4139 24.4187 11.0002C24.6285 11.567 24.7725 12.2148 24.8152 13.1638C24.856 14.1147 24.8667 14.4185 24.8667 16.8395C24.8667 19.2605 24.856 19.5636 24.8152 20.5145C24.7725 21.4631 24.6285 22.1111 24.4187 22.6781C24.2 23.2642 23.9085 23.7615 23.4338 24.257C22.9597 24.7529 22.4843 25.0582 21.9232 25.2859C21.3803 25.5063 20.7595 25.6566 19.851 25.7C18.9408 25.7433 18.6508 25.7539 16.3331 25.7539C14.0158 25.7539 13.7251 25.7433 12.8149 25.7C11.9066 25.6566 11.2863 25.5063 10.7434 25.2859C10.1825 25.0582 9.70638 24.7529 9.23224 24.257C8.75775 23.7615 8.46619 23.2642 8.24805 22.6779C8.03721 22.1111 7.89338 21.4633 7.8516 20.5143C7.81036 19.5634 7.80005 19.2605 7.80005 16.8395C7.80005 14.4185 7.81072 14.1145 7.85143 13.1636C7.89232 12.215 8.03632 11.567 8.24788 11C8.46655 10.4139 8.7581 9.91657 9.23277 9.42108C9.70709 8.9254 10.1832 8.62083 10.7444 8.39314C11.287 8.1727 11.9071 8.02245 12.8156 7.97899Z" fill="white"/>
<path fill-rule="evenodd" clip-rule="evenodd" d="M15.5687 9.53104C15.7174 9.53079 15.8773 9.53087 16.0498 9.53095L16.3343 9.53104C18.6127 9.53104 18.8827 9.53958 19.7825 9.58229C20.6145 9.62204 21.066 9.76727 21.3668 9.88928C21.7651 10.0509 22.049 10.244 22.3475 10.556C22.6461 10.868 22.831 11.1652 22.9861 11.5812C23.1029 11.895 23.2421 12.3667 23.2799 13.2359C23.3208 14.1756 23.3297 14.4579 23.3297 16.8369C23.3297 19.216 23.3208 19.4982 23.2799 20.438C23.2419 21.3071 23.1029 21.7788 22.9861 22.0927C22.8314 22.5087 22.6461 22.8049 22.3475 23.1167C22.0488 23.4287 21.7652 23.6219 21.3668 23.7835C21.0664 23.906 20.6145 24.0509 19.7825 24.0906C18.8829 24.1333 18.6127 24.1426 16.3343 24.1426C14.0556 24.1426 13.7856 24.1333 12.886 24.0906C12.054 24.0505 11.6025 23.9053 11.3015 23.7833C10.9033 23.6217 10.6188 23.4286 10.3201 23.1165C10.0215 22.8045 9.83658 22.5081 9.68156 22.092C9.56476 21.7781 9.42556 21.3064 9.38769 20.4372C9.3468 19.4975 9.33862 19.2152 9.33862 16.8347C9.33862 14.4542 9.3468 14.1734 9.38769 13.2337C9.42574 12.3645 9.56476 11.8928 9.68156 11.5786C9.83623 11.1626 10.0215 10.8654 10.3201 10.5534C10.6188 10.2414 10.9033 10.0483 11.3015 9.88631C11.6023 9.76374 12.054 9.61888 12.886 9.57895C13.6732 9.54181 13.9783 9.53067 15.5687 9.52881V9.53104ZM20.8891 11.0107C20.3238 11.0107 19.8651 11.4893 19.8651 12.0801C19.8651 12.6707 20.3238 13.1498 20.8891 13.1498C21.4545 13.1498 21.9131 12.6707 21.9131 12.0801C21.9131 11.4895 21.4545 11.0104 20.8891 11.0104V11.0107ZM11.952 16.838C11.952 14.3099 13.9141 12.2601 16.3341 12.26C18.7542 12.26 20.7159 14.3098 20.7159 16.838C20.7159 19.3661 18.7544 21.4149 16.3343 21.4149C13.9142 21.4149 11.952 19.3661 11.952 16.838Z" fill="white"/>
<path fill-rule="evenodd" clip-rule="evenodd" d="M16.334 13.8677C17.9048 13.8677 19.1785 15.198 19.1785 16.8391C19.1785 18.4801 17.9048 19.8106 16.334 19.8106C14.7629 19.8106 13.4895 18.4801 13.4895 16.8391C13.4895 15.198 14.7629 13.8677 16.334 13.8677V13.8677Z" fill="white"/>
</svg>
