<svg width="32" height="34" viewBox="0 0 32 34" fill="none" xmlns="http://www.w3.org/2000/svg">
<path fill-rule="evenodd" clip-rule="evenodd" d="M0 16.8393C0 7.60824 7.16344 0.125 16 0.125C24.8366 0.125 32 7.60824 32 16.8393C32 26.0703 24.8366 33.5536 16 33.5536C7.16344 33.5536 0 26.0703 0 16.8393Z" fill="#C4C4C4"/>
<path fill-rule="evenodd" clip-rule="evenodd" d="M16 0.125C7.16344 0.125 0 7.60824 0 16.8393C0 26.0703 7.16344 33.5536 16 33.5536C24.8366 33.5536 32 26.0703 32 16.8393C32 7.60824 24.8366 0.125 16 0.125ZM16.2211 14.2885L16.1875 13.7102C16.0868 12.2112 16.971 10.842 18.3699 10.3109C18.8847 10.122 19.7577 10.0984 20.3285 10.2637C20.5523 10.3345 20.9776 10.5705 21.2798 10.783L21.8281 11.1725L22.4325 10.9719C22.7682 10.8656 23.2159 10.6886 23.4174 10.5705C23.6076 10.4643 23.7755 10.4053 23.7755 10.4407C23.7755 10.6414 23.3614 11.3259 23.0145 11.7036C22.5444 12.2348 22.6787 12.282 23.63 11.9279C24.2008 11.7273 24.212 11.7273 24.1001 11.9515C24.0329 12.0695 23.686 12.4826 23.3166 12.8603C22.6899 13.5095 22.6563 13.5803 22.6563 14.1233C22.6563 14.9613 22.2758 16.7082 21.8953 17.6642C21.1902 19.4583 19.6793 21.3114 18.1685 22.2438C16.0421 23.554 13.2106 23.8844 10.8267 23.1172C10.0321 22.8576 8.66675 22.1966 8.66675 22.0786C8.66675 22.0432 9.08084 21.996 9.58447 21.9841C10.6365 21.9605 11.6885 21.6537 12.5838 21.1107L13.1882 20.733L12.4943 20.4852C11.5094 20.1311 10.6253 19.3166 10.4015 18.5494C10.3343 18.3016 10.3567 18.2898 10.9834 18.2898L11.6325 18.278L11.0841 18.0065C10.435 17.6642 9.84187 17.0859 9.55089 16.4957C9.33825 16.0708 9.06965 14.9967 9.14799 14.9141C9.17037 14.8787 9.4054 14.9495 9.674 15.0439C10.4462 15.339 10.5469 15.2682 10.0993 14.7725C9.25991 13.8754 9.0025 12.5417 9.4054 11.2787L9.59566 10.7122L10.3343 11.4794C11.8452 13.0256 13.6247 13.9462 15.6615 14.2177L16.2211 14.2885Z" fill="white"/>
</svg>
